<svg width="141" height="43" viewBox="0 0 141 43" fill="none" xmlns="http://www.w3.org/2000/svg">
<path d="M26.5 42C37.8218 42 47 32.8218 47 21.5C47 10.1782 37.8218 1 26.5 1C15.1782 1 6 10.1782 6 21.5C6 32.8218 15.1782 42 26.5 42Z" stroke="white"/>
<path d="M39 21.5C39 27.2752 37.4143 32.4556 34.9077 36.1609C32.3952 39.8747 29.0465 42 25.5 42C21.9535 42 18.6048 39.8747 16.0923 36.1609C13.5857 32.4556 12 27.2752 12 21.5C12 15.7248 13.5857 10.5444 16.0923 6.83914C18.6048 3.12528 21.9535 1 25.5 1C29.0465 1 32.3952 3.12528 34.9077 6.83914C37.4143 10.5444 39 15.7248 39 21.5Z" stroke="white"/>
<path d="M26.5 34C20.7248 34 15.5444 32.5318 11.8391 30.2108C8.12528 27.8844 6 24.7838 6 21.5C6 18.2162 8.12528 15.1156 11.8391 12.7892C15.5444 10.4682 20.7248 9 26.5 9C32.2752 9 37.4556 10.4682 41.1609 12.7892C44.8747 15.1156 47 18.2162 47 21.5C47 24.7838 44.8747 27.8844 41.1609 30.2108C37.4556 32.5318 32.2752 34 26.5 34Z" stroke="white" stroke-width="2"/>
<path d="M29 21.5C29 27.3926 28.3755 32.6929 27.3845 36.4899C26.8868 38.3966 26.3116 39.8657 25.7149 40.8326C25.0702 41.8773 24.6197 42 24.5 42C24.3803 42 23.9298 41.8773 23.2851 40.8326C22.6884 39.8657 22.1132 38.3966 21.6155 36.4899C20.6245 32.6929 20 27.3926 20 21.5C20 15.6074 20.6245 10.3071 21.6155 6.51005C22.1132 4.60333 22.6884 3.13435 23.2851 2.16749C23.9298 1.12267 24.3803 1 24.5 1C24.6197 1 25.0702 1.12267 25.7149 2.16749C26.3116 3.13435 26.8868 4.60333 27.3845 6.51005C28.3755 10.3071 29 15.6074 29 21.5Z" stroke="white"/>
<path d="M26.5 26C20.6074 26 15.3071 25.3755 11.5101 24.3845C9.60333 23.8868 8.13435 23.3116 7.16749 22.7149C6.12267 22.0702 6 21.6197 6 21.5C6 21.3803 6.12267 20.9298 7.16749 20.2851C8.13435 19.6884 9.60333 19.1132 11.5101 18.6155C15.3071 17.6245 20.6074 17 26.5 17C32.3926 17 37.6929 17.6245 41.4899 18.6155C43.3966 19.1132 44.8657 19.6884 45.8326 20.2851C46.8773 20.9298 47 21.3803 47 21.5C47 21.6197 46.8773 22.0702 45.8326 22.7149C44.8657 23.3116 43.3966 23.8868 41.4899 24.3845C37.6929 25.3755 32.3926 26 26.5 26Z" stroke="white" stroke-width="2"/>
<path d="M25.5 34C39.5833 34 51 28.4036 51 21.5C51 14.5964 39.5833 9 25.5 9C11.4167 9 0 14.5964 0 21.5C0 28.4036 11.4167 34 25.5 34Z" fill="url(#paint0_radial_93_14)"/>
<path d="M9.63422 22.4141H8V21.4867C8.22135 21.4334 8.43579 21.3605 8.64331 21.2681C8.85429 21.1722 9.05144 21.0603 9.23474 20.9324C9.41805 20.8009 9.5858 20.6535 9.73799 20.4899C9.89362 20.3265 10.0251 20.1506 10.1323 19.9623H12.4409V27.8774H9.63422V22.4141ZM20.279 26.4532L23.0846 23.8607C23.6381 23.349 24.0919 22.8857 24.446 22.4706C24.8057 22.0556 25.088 21.6718 25.2927 21.3193C25.503 20.9669 25.6469 20.6399 25.7243 20.3387C25.8073 20.0316 25.8488 19.736 25.8488 19.4516C25.8488 19.1048 25.799 18.7894 25.6994 18.5051C25.5998 18.2207 25.4532 17.9792 25.2595 17.7802C25.0713 17.5755 24.8389 17.4192 24.5622 17.3111C24.2911 17.2032 23.9784 17.1491 23.6243 17.1491C23.1317 17.1491 22.6447 17.2514 22.1633 17.4561C21.6818 17.6608 21.2336 17.9422 20.8185 18.3004L19.8888 16.808C20.1544 16.5692 20.4754 16.3418 20.8518 16.1258C21.2336 15.9039 21.6597 15.7107 22.1301 15.5458C22.6004 15.3753 23.1041 15.2417 23.6408 15.145C24.1831 15.0484 24.7504 15 25.3424 15C26.156 15 26.8782 15.0939 27.509 15.2814C28.1399 15.4691 28.6712 15.7278 29.1028 16.0575C29.54 16.3873 29.8693 16.7767 30.0906 17.2259C30.3174 17.6749 30.4309 18.1583 30.4309 18.6756C30.4309 19.1873 30.3174 19.7018 30.0906 20.2192C29.8637 20.7365 29.5178 21.2511 29.0529 21.7627C28.5936 22.2745 28.0126 22.7804 27.3098 23.2808C26.6069 23.7811 25.7824 24.2672 24.8362 24.7391L27.3015 24.5344H30.4724V27.8774H20.3122L20.3288 27.8604L20.279 27.8774V26.4532ZM38.9092 26.2091C38.9783 26.234 39.0717 26.266 39.1894 26.3051C39.307 26.3406 39.4401 26.3779 39.5889 26.417C39.7376 26.4526 39.8932 26.4845 40.0557 26.5129C40.2218 26.5378 40.3861 26.5503 40.5486 26.5503C40.8011 26.5503 41.0259 26.5165 41.2231 26.449C41.4202 26.3779 41.5863 26.2837 41.7211 26.1665C41.856 26.0492 41.958 25.9159 42.0272 25.7667C42.0999 25.6139 42.1361 25.4576 42.1361 25.2977C42.1361 25.1128 42.0912 24.9406 42.0013 24.7807C41.9114 24.6208 41.7817 24.4857 41.6122 24.3756C41.4461 24.2654 41.2438 24.1854 41.0052 24.1358C40.7699 24.0824 40.5054 24.0718 40.2114 24.1038V23.4321L42.1672 21.8811L41.0415 21.9397H38.7846V19.9569H44.6887V21.0923L42.1569 23.0538C42.6204 23.068 43.0285 23.139 43.3813 23.267C43.7375 23.3949 44.035 23.5654 44.2737 23.7786C44.5123 23.9918 44.6921 24.2388 44.8132 24.5195C44.9377 24.8002 45 25.1005 45 25.4202C45 25.8075 44.9135 26.1611 44.7405 26.4809C44.5677 26.7972 44.3255 27.069 44.0142 27.2965C43.7064 27.5204 43.3363 27.6945 42.904 27.8188C42.4717 27.9396 41.9961 28 41.4773 28C41.1799 28 40.8876 27.9787 40.6005 27.936C40.3169 27.897 40.0419 27.8401 39.7757 27.7655C39.5093 27.6909 39.2533 27.6003 39.0078 27.4936C38.7656 27.3871 38.5409 27.268 38.3333 27.1365L38.9092 26.2091Z" fill="white"/>
<path d="M54.2128 28.2433C54.9453 28.8304 55.7124 29.2708 56.5141 29.5643C57.3156 29.8577 58.062 30.0046 58.753 30.0046C59.5477 30.0046 60.1282 29.8252 60.4945 29.4665C60.8676 29.1076 61.0542 28.6185 61.0542 27.9988C61.0542 27.803 61.0301 27.6018 60.9817 27.3952C60.9402 27.1887 60.8538 26.9876 60.7226 26.792C60.5981 26.5853 60.4219 26.3842 60.1938 26.1886C59.9728 25.982 59.6825 25.7808 59.3232 25.5851L57.4676 24.5903C56.1409 23.8728 55.1422 22.9052 54.4719 21.6875C53.8017 20.459 53.4665 19.0022 53.4665 17.3171C53.4665 16.2298 53.6115 15.1861 53.9018 14.1859C54.192 13.1748 54.6309 12.2888 55.2182 11.5277C55.8057 10.7559 56.5451 10.1415 57.4366 9.68494C58.3349 9.22832 59.3853 9 60.5878 9C61.1821 9 61.7522 9.05436 62.2981 9.16308C62.844 9.2718 63.3555 9.41313 63.8323 9.58709C64.3161 9.76103 64.7583 9.96216 65.1591 10.1904C65.5599 10.4079 65.9124 10.6253 66.2163 10.8428L65.0969 14.0228C64.8758 13.8054 64.6408 13.6151 64.3921 13.4521C64.1501 13.289 63.9048 13.153 63.6561 13.0443C63.4142 12.9357 63.1758 12.8541 62.9408 12.7998C62.7059 12.7453 62.4916 12.7182 62.2981 12.7182C61.9665 12.7182 61.6762 12.7889 61.4274 12.9302C61.1786 13.0607 60.9678 13.2401 60.7951 13.4684C60.6293 13.6858 60.5014 13.9359 60.4115 14.2186C60.3286 14.4903 60.2871 14.7622 60.2871 15.0339C60.2871 15.2732 60.3217 15.5068 60.3908 15.7352C60.4669 15.9526 60.5912 16.17 60.764 16.3875C60.9436 16.594 61.1752 16.8061 61.4585 17.0235C61.7488 17.23 62.1081 17.4475 62.5366 17.6758L63.7804 18.3282C65.1281 19.0348 66.1577 20.0078 66.8694 21.2473C67.5812 22.4866 67.9371 23.987 67.9371 25.7483C67.9371 26.944 67.7644 28.0477 67.4189 29.0587C67.0802 30.0698 66.5723 30.945 65.8951 31.6843C65.2179 32.4127 64.3747 32.9835 63.3658 33.3966C62.3637 33.7989 61.1994 34 59.8726 34C59.2368 34 58.6217 33.9458 58.0274 33.8371C57.44 33.7391 56.863 33.5868 56.2963 33.3803C55.7366 33.1737 55.1838 32.9128 54.6378 32.5976C54.0918 32.2823 53.5459 31.9126 53 31.4886L54.2128 28.2433ZM72.3049 9.39139H78.2963V19.5512H82.7225V9.39139H88.7243L88.714 33.6249H82.7225V23.2858H78.2963V33.6249H72.3049V9.39139ZM93.2476 21.4592C93.2476 19.6218 93.4341 17.9422 93.8073 16.4201C94.1805 14.8872 94.7368 13.5716 95.4762 12.4736C96.2156 11.3755 97.1382 10.5221 98.2439 9.91324C99.3496 9.30441 100.635 9 102.1 9C103.565 9 104.85 9.30441 105.956 9.91324C107.062 10.5221 107.984 11.3755 108.724 12.4736C109.463 13.5716 110.02 14.8872 110.393 16.4201C110.766 17.9422 110.953 19.6218 110.953 21.4592C110.953 23.3184 110.766 25.0198 110.393 26.5636C110.02 28.1075 109.463 29.4284 108.724 30.5264C107.984 31.6246 107.062 32.478 105.956 33.0867C104.85 33.6955 103.565 34 102.1 34C100.635 34 99.3496 33.6955 98.2439 33.0867C97.1382 32.478 96.2156 31.6246 95.4762 30.5264C94.7368 29.4284 94.1805 28.1075 93.8073 26.5636C93.4341 25.0198 93.2476 23.3184 93.2476 21.4592ZM102.1 30.6242C102.515 30.6242 102.881 30.5102 103.199 30.2817C103.517 30.0535 103.783 29.6077 103.997 28.9447C104.211 28.2813 104.374 27.3518 104.484 26.1559C104.595 24.96 104.65 23.3945 104.65 21.4592C104.65 19.5458 104.595 17.9965 104.484 16.8115C104.374 15.6264 104.211 14.7078 103.997 14.0554C103.783 13.4032 103.517 12.9628 103.199 12.7345C102.881 12.5062 102.515 12.3921 102.1 12.3921C101.685 12.3921 101.316 12.5062 100.991 12.7345C100.673 12.9628 100.407 13.4032 100.193 14.0554C99.9784 14.7078 99.816 15.6264 99.7054 16.8115C99.5949 17.9965 99.5396 19.5458 99.5396 21.4592C99.5396 23.3945 99.5949 24.96 99.7054 26.1559C99.816 27.3518 99.9784 28.2813 100.193 28.9447C100.407 29.6077 100.673 30.0535 100.991 30.2817C101.316 30.5102 101.685 30.6242 102.1 30.6242ZM115.476 9.39139H122.887C124.256 9.38052 125.434 9.57077 126.422 9.96216C127.417 10.3427 128.236 10.8917 128.878 11.6092C129.521 12.3268 129.995 13.1911 130.299 14.2022C130.61 15.2024 130.765 16.3168 130.765 17.5453C130.765 18.6216 130.62 19.6545 130.33 20.6438C130.047 21.6223 129.605 22.4866 129.003 23.2368C128.409 23.987 127.648 24.5849 126.723 25.0307C125.804 25.4763 124.708 25.6992 123.436 25.6992H121.467V33.6249H115.476V9.39139ZM121.467 22.1441C121.944 22.1333 122.368 22.0191 122.742 21.8017C123.115 21.5734 123.43 21.2636 123.685 20.8722C123.941 20.4699 124.135 19.9915 124.266 19.4371C124.404 18.8717 124.473 18.2412 124.473 17.5453C124.473 16.8604 124.404 16.2407 124.266 15.6862C124.127 15.1317 123.927 14.6588 123.665 14.2675C123.408 13.8652 123.095 13.5499 122.721 13.3216C122.355 13.0933 121.937 12.9683 121.467 12.9465V22.1441ZM135.019 9.4077H140.627V22.8454H135.019V9.4077ZM134.625 30.2002C134.625 29.6892 134.684 29.211 134.801 28.7651C134.926 28.3086 135.116 27.9171 135.371 27.591C135.634 27.254 135.966 26.9876 136.367 26.792C136.768 26.5962 137.251 26.4984 137.817 26.4984C138.377 26.4984 138.857 26.5962 139.258 26.792C139.666 26.9876 139.998 27.254 140.254 27.591C140.509 27.9171 140.696 28.3086 140.813 28.7651C140.937 29.211 141 29.6892 141 30.2002C141 30.7221 140.937 31.2114 140.813 31.6679C140.696 32.1138 140.509 32.5051 140.254 32.8421C139.998 33.1684 139.666 33.4292 139.258 33.6249C138.857 33.8207 138.377 33.9185 137.817 33.9185C137.251 33.9185 136.768 33.8207 136.367 33.6249C135.966 33.4292 135.634 33.1684 135.371 32.8421C135.116 32.5051 134.926 32.1138 134.801 31.6679C134.684 31.2114 134.625 30.7221 134.625 30.2002Z" fill="white"/>
<defs>
<radialGradient id="paint0_radial_93_14" cx="0" cy="0" r="1" gradientUnits="userSpaceOnUse" gradientTransform="translate(25.5 21.5) rotate(90) scale(12.5 25.5)">
<stop offset="0.203125" stop-color="#FF4C2C"/>
<stop offset="1" stop-color="#FF2F09"/>
</radialGradient>
</defs>
</svg>
